<svg fill="none" height="32" viewBox="0 0 32 32" width="32" xmlns="http://www.w3.org/2000/svg"><path d="m32 0h-32v32h32z" fill="#fff"/><g clip-rule="evenodd" fill-rule="evenodd"><path d="m23.8299 16.1818c0-.5672-.0509-1.1127-.1454-1.6363h-7.5346v3.0945h4.3055c-.1855 1-.7491 1.8473-1.5964 2.4146v2.0073h2.5855c1.5127-1.3928 2.3854-3.4437 2.3854-5.8801z" fill="#4285f4"/><path d="m16.1496 24c2.16 0 3.9709-.7164 5.2946-1.9382l-2.5855-2.0073c-.7164.48-1.6327.7636-2.7091.7636-2.0836 0-3.8473-1.4072-4.4764-3.2981h-2.67271v2.0727c1.31641 2.6145 4.02181 4.4073 7.14911 4.4073z" fill="#34a853"/><path d="m11.6735 17.52c-.16-.48-.2509-.9928-.2509-1.52 0-.5273.0909-1.04.2509-1.52v-2.0728h-2.67269c-.54182 1.08-.85091 2.3018-.85091 3.5928 0 1.2909.30909 2.5127.85091 3.5927z" fill="#fbbc05"/><path d="m16.1496 11.1818c1.1745 0 2.2291.4037 3.0582 1.1964l2.2945-2.2946c-1.3854-1.29087-3.1963-2.0836-5.3527-2.0836-3.1273 0-5.8327 1.79273-7.14911 4.4073l2.67271 2.0727c.6291-1.8909 2.3928-3.2982 4.4764-3.2982z" fill="#ea4335"/></g></svg>